# xmcd
#
# Track frame offsets:
#	150
#	14836
#	29851
#	43711
#
# Disc length: 767 seconds
#
# Revision: 0
# Processed by: cddbd v1.5.2PL0 Copyright (c) Steve Scherf et al.
# Submitted via: FairStars CD Ripper 1.90
#
DISCID=3602fd04
DTITLE=Jenny Ray - Jenny Ray
DYEAR=2016
DGENRE=Country
TTITLE0=Fire
TTITLE1=A Bad Thing
TTITLE2=Fumes
TTITLE3=Tennessee River
EXTD=
EXTT0=
EXTT1=
EXTT2=
EXTT3=
PLAYORDER=
